<?xml version="1.0" standalone="no"?><!DOCTYPE svg PUBLIC "-//W3C//DTD SVG 1.1//EN" "http://www.w3.org/Graphics/SVG/1.1/DTD/svg11.dtd"><svg t="1592149227102" class="icon" viewBox="0 0 1024 1024" version="1.1" xmlns="http://www.w3.org/2000/svg" p-id="1169" xmlns:xlink="http://www.w3.org/1999/xlink" width="200" height="200"><defs><style type="text/css"></style></defs><path d="M170.666667 896h682.666666a42.666667 42.666667 0 0 0 42.666667-42.666667V341.333333a42.538667 42.538667 0 0 0-12.501333-30.165333l-170.666667-170.666667A42.496 42.496 0 0 0 682.666667 128H170.666667a42.666667 42.666667 0 0 0-42.666667 42.666667v682.666666a42.666667 42.666667 0 0 0 42.666667 42.666667zM213.333333 213.333333h85.333334v128h341.333333V213.333333h25.002667L810.666667 358.997333V810.666667H213.333333V213.333333z" fill="#ffffff" p-id="1170"></path><path d="M512 426.666667c-82.346667 0-149.333333 66.986667-149.333333 149.333333S429.653333 725.333333 512 725.333333s149.333333-66.986667 149.333333-149.333333S594.346667 426.666667 512 426.666667z m0 213.333333c-35.285333 0-64-28.714667-64-64S476.714667 512 512 512s64 28.714667 64 64S547.285333 640 512 640z" fill="#ffffff" p-id="1171"></path></svg>